<svg xmlns="http://www.w3.org/2000/svg" xmlns:xlink="http://www.w3.org/1999/xlink" width="500" zoomAndPan="magnify" viewBox="0 0 375 374.999991" height="500" preserveAspectRatio="xMidYMid meet" version="1.0"><defs><g/><clipPath id="20902a1fa8"><path d="M 45 155 L 194 155 L 194 240.683594 L 45 240.683594 Z M 45 155 " clip-rule="nonzero"/></clipPath><clipPath id="d05472e60e"><path d="M 44.566406 140 L 194.566406 140 L 194.566406 229 L 44.566406 229 Z M 44.566406 140 " clip-rule="nonzero"/></clipPath><clipPath id="1460909c08"><path d="M 44.566406 134.183594 L 194.566406 134.183594 L 194.566406 222 L 44.566406 222 Z M 44.566406 134.183594 " clip-rule="nonzero"/></clipPath></defs><rect x="-37.5" width="450" fill="#ffffff" y="-37.499999" height="449.999989" fill-opacity="1"/><rect x="-37.5" width="450" fill="#ffffff" y="-37.499999" height="449.999989" fill-opacity="1"/><rect x="-37.5" width="450" fill="#ffffff" y="-37.499999" height="449.999989" fill-opacity="1"/><g clip-path="url(#20902a1fa8)"><path fill="#00e6d8" d="M 193.292969 200.242188 L 123.160156 240.660156 L 45.835938 196.066406 L 115.96875 155.648438 Z M 193.292969 200.242188 " fill-opacity="1" fill-rule="nonzero"/></g><g clip-path="url(#d05472e60e)"><path fill="#495cd9" d="M 194.566406 179.832031 L 194.566406 186.546875 C 194.566406 186.980469 194.332031 187.414062 193.929688 187.648438 L 123.796875 228.066406 C 123.59375 228.167969 123.394531 228.234375 123.160156 228.234375 C 122.925781 228.234375 122.726562 228.167969 122.523438 228.066406 L 45.199219 183.472656 C 44.796875 183.238281 44.566406 182.839844 44.566406 182.371094 L 44.566406 175.65625 C 44.566406 175.1875 44.832031 174.722656 45.265625 174.519531 L 115.402344 140.78125 C 115.734375 140.617188 116.136719 140.617188 116.503906 140.78125 L 193.828125 178.664062 C 194.261719 178.929688 194.566406 179.363281 194.566406 179.832031 Z M 194.566406 179.832031 " fill-opacity="1" fill-rule="nonzero"/></g><path fill="#45d1f2" d="M 193.292969 179.832031 L 123.160156 220.285156 L 45.835938 175.691406 L 115.96875 135.238281 Z M 193.292969 179.832031 " fill-opacity="1" fill-rule="nonzero"/><path fill="#ffffff" d="M 127.976562 151.238281 L 73.59375 182.605469 C 72.054688 183.472656 69.414062 183.375 67.640625 182.371094 L 60.015625 177.960938 C 58.242188 176.960938 58.078125 175.421875 59.582031 174.519531 L 113.960938 143.152344 C 115.5 142.285156 118.144531 142.386719 119.914062 143.386719 L 127.542969 147.796875 C 129.3125 148.832031 129.515625 150.371094 127.976562 151.238281 Z M 91.421875 180.300781 L 77.707031 188.183594 L 87.238281 193.695312 L 100.953125 185.8125 Z M 107.675781 170.914062 L 93.960938 178.796875 L 103.496094 184.308594 L 117.207031 176.425781 Z M 123.929688 161.527344 L 110.21875 169.410156 L 119.75 174.921875 L 133.460938 167.039062 Z M 103.292969 187.148438 L 89.582031 195.03125 L 99.113281 200.542969 L 112.824219 192.660156 Z M 119.546875 177.761719 L 105.835938 185.644531 L 115.367188 191.15625 L 129.078125 183.273438 Z M 135.800781 168.375 L 122.089844 176.257812 L 131.621094 181.769531 L 145.332031 173.886719 Z M 115.167969 193.960938 L 101.453125 201.847656 L 110.984375 207.359375 L 124.699219 199.472656 Z M 131.421875 184.609375 L 117.707031 192.492188 L 127.238281 198.003906 L 140.953125 190.121094 Z M 147.675781 175.222656 L 133.960938 183.105469 L 143.496094 188.617188 L 157.207031 180.734375 Z M 127.039062 200.808594 L 113.328125 208.695312 L 122.859375 214.207031 L 136.570312 206.320312 Z M 143.292969 191.457031 L 129.582031 199.339844 L 139.113281 204.851562 L 152.824219 196.96875 Z M 159.546875 182.070312 L 145.835938 189.953125 L 155.367188 195.464844 L 169.078125 187.582031 Z M 149.515625 160.492188 L 139.914062 166.035156 L 149.449219 171.546875 L 159.046875 165.96875 Z M 149.515625 160.492188 " fill-opacity="1" fill-rule="nonzero"/><g clip-path="url(#1460909c08)"><path fill="#495cd9" d="M 123.160156 221.289062 C 122.992188 221.289062 122.824219 221.253906 122.660156 221.152344 L 45.332031 176.558594 C 45.03125 176.390625 44.832031 176.058594 44.832031 175.691406 C 44.832031 175.324219 45.03125 174.988281 45.332031 174.820312 L 115.46875 134.367188 C 115.769531 134.203125 116.171875 134.203125 116.472656 134.367188 L 193.796875 178.964844 C 194.097656 179.128906 194.296875 179.464844 194.296875 179.832031 C 194.296875 180.199219 194.097656 180.535156 193.796875 180.699219 L 123.660156 221.152344 C 123.496094 221.21875 123.328125 221.289062 123.160156 221.289062 Z M 47.84375 175.691406 L 123.160156 219.117188 L 191.285156 179.832031 L 115.96875 136.40625 Z M 70.984375 184.207031 C 69.648438 184.207031 68.242188 183.875 67.140625 183.238281 L 59.515625 178.832031 C 58.277344 178.128906 57.574219 177.09375 57.574219 176.023438 C 57.574219 175.089844 58.109375 174.253906 59.113281 173.652344 L 113.460938 142.285156 C 115.300781 141.21875 118.34375 141.351562 120.417969 142.519531 L 128.042969 146.929688 C 129.28125 147.628906 129.984375 148.664062 129.984375 149.734375 C 129.984375 150.671875 129.449219 151.503906 128.445312 152.105469 C 127.976562 152.375 127.339844 152.207031 127.074219 151.738281 C 126.804688 151.273438 126.972656 150.636719 127.441406 150.371094 C 127.609375 150.269531 127.976562 150.035156 127.976562 149.734375 C 127.976562 149.5 127.742188 149.066406 127.039062 148.664062 L 119.414062 144.257812 C 117.976562 143.421875 115.703125 143.320312 114.464844 144.023438 L 60.082031 175.390625 C 59.914062 175.488281 59.546875 175.722656 59.546875 176.023438 C 59.546875 176.257812 59.78125 176.691406 60.484375 177.09375 L 68.109375 181.503906 C 69.546875 182.335938 71.820312 182.4375 73.058594 181.738281 L 94.730469 169.242188 C 95.199219 168.976562 95.835938 169.144531 96.101562 169.609375 C 96.371094 170.078125 96.203125 170.714844 95.734375 170.980469 L 74.0625 183.472656 C 73.226562 183.972656 72.15625 184.207031 70.984375 184.207031 Z M 70.984375 184.207031 " fill-opacity="1" fill-rule="nonzero"/></g><path fill="#495cd9" d="M 182.792969 179.664062 L 173.195312 185.210938 L 151.789062 172.851562 L 161.386719 167.304688 Z M 182.792969 179.664062 " fill-opacity="1" fill-rule="nonzero"/><path fill="#f2a921" d="M 147.171875 159.121094 L 137.574219 164.667969 L 128.042969 159.15625 L 137.640625 153.609375 Z M 147.171875 159.121094 " fill-opacity="1" fill-rule="nonzero"/><g fill="#45d1f2" fill-opacity="1"><g transform="translate(211.617267, 170.601946)"><g><path d="M 9.3125 -6.613281 C 10.511719 -7.039062 11.09375 -7.886719 11.09375 -8.996094 C 11.09375 -10.585938 9.964844 -11.855469 7.957031 -12.101562 C 7.339844 -12.171875 7.054688 -12.171875 6.402344 -12.171875 L 1.410156 -12.171875 L 1.410156 0 L 6.261719 0 C 7.039062 0 7.445312 0 8.0625 -0.0703125 C 9.703125 -0.265625 11.554688 -1.394531 11.554688 -3.667969 C 11.554688 -5.152344 10.847656 -6.175781 9.3125 -6.613281 Z M 4.585938 -9.703125 L 6.015625 -9.703125 C 6.296875 -9.703125 6.578125 -9.683594 6.808594 -9.648438 C 7.410156 -9.5625 7.777344 -9.226562 7.777344 -8.539062 C 7.777344 -7.816406 7.375 -7.515625 6.792969 -7.425781 C 6.5625 -7.390625 6.296875 -7.375 6.015625 -7.375 L 4.585938 -7.375 Z M 7.089844 -2.488281 C 6.863281 -2.46875 6.578125 -2.46875 6.296875 -2.46875 L 4.585938 -2.46875 L 4.585938 -5.082031 L 6.210938 -5.082031 C 6.492188 -5.082031 6.773438 -5.082031 7.003906 -5.0625 C 7.65625 -5.007812 8.238281 -4.585938 8.238281 -3.773438 C 8.238281 -2.980469 7.65625 -2.523438 7.089844 -2.488281 Z M 7.089844 -2.488281 "/></g></g></g><g fill="#45d1f2" fill-opacity="1"><g transform="translate(223.627909, 170.601946)"><g><path d="M 15.328125 -12.171875 L 10.496094 -12.171875 L 8.433594 -3.085938 L 6.367188 -12.171875 L 1.410156 -12.171875 L 1.410156 0 L 4.585938 0 L 4.585938 -5.117188 C 4.585938 -6.175781 4.585938 -7.742188 4.550781 -8.980469 C 4.746094 -7.742188 5.097656 -6.175781 5.378906 -5.117188 L 6.738281 0 L 10 0 L 11.34375 -5.117188 C 11.625 -6.191406 11.976562 -7.742188 12.1875 -8.980469 C 12.152344 -7.742188 12.152344 -6.175781 12.152344 -5.117188 L 12.152344 0 L 15.328125 0 Z M 15.328125 -12.171875 "/></g></g></g><g fill="#45d1f2" fill-opacity="1"><g transform="translate(239.906648, 170.601946)"><g><path d="M 4.585938 0 L 4.585938 -12.171875 L 1.410156 -12.171875 L 1.410156 0 Z M 4.585938 0 "/></g></g></g><g fill="#495cd9" fill-opacity="1"><g transform="translate(210.203554, 197.299)"><g><path d="M 9.269531 -16.523438 C 4.882812 -16.523438 1.265625 -13.613281 1.265625 -7.980469 C 1.265625 -2.488281 4.765625 0.328125 9.105469 0.328125 C 13.167969 0.328125 16.148438 -1.667969 16.546875 -5.5625 L 16.570312 -5.796875 L 12.34375 -5.796875 L 12.296875 -5.5625 C 11.945312 -3.777344 10.890625 -2.769531 9.246094 -2.769531 C 7.371094 -2.769531 5.679688 -4.152344 5.679688 -8.238281 C 5.679688 -11.734375 7.203125 -13.425781 9.222656 -13.425781 C 10.9375 -13.425781 11.992188 -12.601562 12.34375 -10.867188 L 12.390625 -10.632812 L 16.617188 -10.632812 L 16.59375 -10.867188 C 16.265625 -14.058594 13.894531 -16.523438 9.269531 -16.523438 Z M 9.269531 -16.523438 "/></g></g></g><g fill="#495cd9" fill-opacity="1"><g transform="translate(227.426448, 197.299)"><g><path d="M 8.613281 0 L 12.742188 0 C 12.554688 -1.382812 12.507812 -2.230469 12.507812 -3.167969 L 12.507812 -6.6875 C 12.507812 -7.464844 12.484375 -8.191406 12.4375 -8.824219 C 12.25 -11.101562 10.890625 -12.859375 6.921875 -12.859375 C 3.753906 -12.859375 1.148438 -11.195312 1.125 -8.261719 L 5.117188 -8.285156 C 5.1875 -9.363281 5.75 -9.996094 6.734375 -9.996094 C 7.652344 -9.996094 8.167969 -9.433594 8.238281 -8.800781 C 8.285156 -8.402344 8.285156 -8.144531 8.285156 -7.886719 L 8.285156 -7.699219 L 7.488281 -7.699219 C 3.238281 -7.699219 0.703125 -6.054688 0.703125 -3.378906 C 0.703125 -0.960938 2.652344 0.328125 4.71875 0.328125 C 5.867188 0.328125 6.921875 0.046875 7.816406 -0.515625 L 8.332031 -1.832031 Z M 6.453125 -2.535156 C 5.609375 -2.535156 5.023438 -2.957031 5.023438 -3.707031 C 5.023438 -4.953125 6.382812 -5.445312 8.285156 -5.304688 L 8.285156 -4.484375 C 8.285156 -3.167969 7.300781 -2.535156 6.453125 -2.535156 Z M 6.453125 -2.535156 "/></g></g></g><g fill="#495cd9" fill-opacity="1"><g transform="translate(241.200066, 197.299)"><g><path d="M 5.398438 -17.25 L 1.171875 -17.25 L 1.171875 -4.4375 C 1.171875 -3.496094 1.171875 -2.863281 1.21875 -2.207031 C 1.3125 -0.539062 2.417969 0.234375 4.367188 0.234375 C 5.304688 0.234375 6.054688 0.1875 6.828125 0.117188 L 6.828125 -2.746094 C 5.726562 -2.699219 5.515625 -2.863281 5.445312 -3.355469 C 5.398438 -3.660156 5.398438 -3.917969 5.398438 -4.507812 Z M 5.398438 -17.25 "/></g></g></g><g fill="#495cd9" fill-opacity="1"><g transform="translate(248.356717, 197.299)"><g><path d="M 7.15625 -12.859375 C 3.472656 -12.859375 0.5625 -10.445312 0.5625 -6.125 C 0.5625 -1.996094 3.285156 0.328125 6.875 0.328125 C 10.28125 0.328125 12.789062 -1.359375 13.261719 -4.601562 L 9.105469 -4.601562 C 8.871094 -3.238281 8.074219 -2.535156 7.109375 -2.535156 C 5.679688 -2.535156 4.882812 -3.707031 4.882812 -6.382812 C 4.882812 -8.800781 5.65625 -9.996094 7.0625 -9.996094 C 8.121094 -9.996094 8.941406 -9.386719 9.128906 -7.746094 L 13.214844 -7.746094 C 13.097656 -10.5625 10.84375 -12.859375 7.15625 -12.859375 Z M 7.15625 -12.859375 "/></g></g></g><g fill="#495cd9" fill-opacity="1"><g transform="translate(262.130336, 197.299)"><g><path d="M 13.753906 -12.53125 L 9.527344 -12.53125 L 9.527344 -5.445312 C 9.527344 -3.777344 8.730469 -2.535156 7.394531 -2.535156 C 6.054688 -2.535156 5.492188 -3.238281 5.351562 -4.4375 C 5.28125 -5.070312 5.257812 -5.75 5.257812 -6.148438 L 5.257812 -12.53125 L 1.03125 -12.53125 L 1.03125 -5.210938 C 1.03125 -4.199219 1.054688 -3.472656 1.148438 -2.839844 C 1.429688 -1.125 3.003906 0.328125 5.585938 0.328125 C 6.734375 0.328125 7.628906 0.0703125 8.402344 -0.398438 L 9.527344 -2.113281 L 9.527344 0 L 13.753906 0 Z M 13.753906 -12.53125 "/></g></g></g><g fill="#495cd9" fill-opacity="1"><g transform="translate(277.147571, 197.299)"><g><path d="M 5.398438 -17.25 L 1.171875 -17.25 L 1.171875 -4.4375 C 1.171875 -3.496094 1.171875 -2.863281 1.21875 -2.207031 C 1.3125 -0.539062 2.417969 0.234375 4.367188 0.234375 C 5.304688 0.234375 6.054688 0.1875 6.828125 0.117188 L 6.828125 -2.746094 C 5.726562 -2.699219 5.515625 -2.863281 5.445312 -3.355469 C 5.398438 -3.660156 5.398438 -3.917969 5.398438 -4.507812 Z M 5.398438 -17.25 "/></g></g></g><g fill="#495cd9" fill-opacity="1"><g transform="translate(284.304221, 197.299)"><g><path d="M 8.613281 0 L 12.742188 0 C 12.554688 -1.382812 12.507812 -2.230469 12.507812 -3.167969 L 12.507812 -6.6875 C 12.507812 -7.464844 12.484375 -8.191406 12.4375 -8.824219 C 12.25 -11.101562 10.890625 -12.859375 6.921875 -12.859375 C 3.753906 -12.859375 1.148438 -11.195312 1.125 -8.261719 L 5.117188 -8.285156 C 5.1875 -9.363281 5.75 -9.996094 6.734375 -9.996094 C 7.652344 -9.996094 8.167969 -9.433594 8.238281 -8.800781 C 8.285156 -8.402344 8.285156 -8.144531 8.285156 -7.886719 L 8.285156 -7.699219 L 7.488281 -7.699219 C 3.238281 -7.699219 0.703125 -6.054688 0.703125 -3.378906 C 0.703125 -0.960938 2.652344 0.328125 4.71875 0.328125 C 5.867188 0.328125 6.921875 0.046875 7.816406 -0.515625 L 8.332031 -1.832031 Z M 6.453125 -2.535156 C 5.609375 -2.535156 5.023438 -2.957031 5.023438 -3.707031 C 5.023438 -4.953125 6.382812 -5.445312 8.285156 -5.304688 L 8.285156 -4.484375 C 8.285156 -3.167969 7.300781 -2.535156 6.453125 -2.535156 Z M 6.453125 -2.535156 "/></g></g></g><g fill="#495cd9" fill-opacity="1"><g transform="translate(298.07784, 197.299)"><g><path d="M 6.335938 -9.808594 L 9.105469 -9.808594 L 9.105469 -12.4375 L 6.335938 -12.4375 L 6.335938 -15.675781 L 2.113281 -15.675781 L 2.113281 -12.4375 L 0.117188 -12.4375 L 0.117188 -9.808594 L 2.113281 -9.808594 L 2.113281 -4.578125 C 2.113281 -3.871094 2.113281 -3.285156 2.160156 -2.558594 C 2.300781 -0.632812 3.238281 0.328125 6.359375 0.328125 C 7.25 0.328125 8.027344 0.257812 8.847656 0.117188 L 8.847656 -2.511719 C 6.851562 -2.417969 6.453125 -2.699219 6.359375 -3.964844 C 6.335938 -4.292969 6.335938 -4.765625 6.335938 -5.1875 Z M 6.335938 -9.808594 "/></g></g></g><g fill="#495cd9" fill-opacity="1"><g transform="translate(307.463615, 197.299)"><g><path d="M 7.300781 -12.859375 C 3.191406 -12.859375 0.5625 -10.304688 0.5625 -6.265625 C 0.5625 -2.253906 3.191406 0.328125 7.300781 0.328125 C 11.40625 0.328125 14.035156 -2.253906 14.035156 -6.265625 C 14.035156 -10.304688 11.40625 -12.859375 7.300781 -12.859375 Z M 7.300781 -2.535156 C 5.796875 -2.535156 4.882812 -3.777344 4.882812 -6.265625 C 4.882812 -8.777344 5.796875 -9.996094 7.300781 -9.996094 C 8.800781 -9.996094 9.714844 -8.777344 9.714844 -6.265625 C 9.714844 -3.777344 8.800781 -2.535156 7.300781 -2.535156 Z M 7.300781 -2.535156 "/></g></g></g><g fill="#495cd9" fill-opacity="1"><g transform="translate(322.058489, 197.299)"><g><path d="M 8.847656 -12.859375 C 8.050781 -12.859375 7.0625 -12.507812 6.382812 -11.757812 L 5.492188 -9.996094 L 5.492188 -12.53125 L 1.265625 -12.53125 L 1.265625 0 L 5.492188 0 L 5.492188 -4.601562 C 5.492188 -8.378906 6.640625 -9.550781 9.808594 -9.339844 L 9.808594 -12.789062 C 9.503906 -12.835938 9.246094 -12.859375 8.847656 -12.859375 Z M 8.847656 -12.859375 "/></g></g></g></svg>